<?xml version="1.0" encoding="utf-8"?>
<!-- Uploaded to: SVG Repo, www.svgrepo.com, Generator: SVG Repo Mixer Tools -->
<svg width="800px" height="800px" viewBox="0 0 1024 1024" class="icon"  version="1.1" xmlns="http://www.w3.org/2000/svg"><path d="M433.5 468.5c0 151.8-86.1 213.9-192.4 213.9S48.8 620.3 48.8 468.5 241.1 71.9 241.1 71.9s192.4 244.8 192.4 396.6z" fill="#60C13D" /><path d="M241.1 692.4c-58.6 0-108.1-18.3-143.1-52.9-39.3-39-59.3-96.5-59.3-171 0-64.8 32.8-152.4 97.6-260.3 47.9-79.8 96.4-141.8 96.9-142.4 1.9-2.4 4.8-3.8 7.9-3.8s6 1.4 7.9 3.8c0.5 0.6 49 62.6 96.9 142.4 64.8 108 97.6 195.6 97.6 260.3 0 74.4-20 132-59.3 171-35 34.6-84.4 52.9-143.1 52.9z m0-604c-15.5 20.7-51.8 70.4-87.7 130.2-43.2 72-94.6 173.8-94.6 249.8 0 68.9 18 121.7 53.4 156.8 31.1 30.8 75.7 47.1 129 47.1s97.9-16.3 129-47.1c35.4-35.1 53.4-87.9 53.4-156.8 0-76.1-51.5-178-94.8-250-36-59.8-72.2-109.4-87.7-130z" fill="" /><path d="M996.6 316.3c0 144.9-262.4 445-262.4 445s-262.4-300.1-262.4-445S589.3 53.9 734.2 53.9s262.4 117.5 262.4 262.4z" fill="#FCD170" /><path d="M734.2 776.5l-7.5-8.6c-0.7-0.8-66.7-76.5-131.8-169-88.3-125.3-133-220.4-133-282.6 0-72.8 28.3-141.2 79.8-192.6s119.9-79.8 192.6-79.8 141.2 28.3 192.6 79.8c51.4 51.4 79.8 119.9 79.8 192.6 0 62.2-44.8 157.3-133 282.6-65.1 92.5-131.2 168.2-131.8 169l-7.7 8.6z m0-712.6c-67.4 0-130.8 26.3-178.5 73.9-47.7 47.7-73.9 111.1-73.9 178.5 0 57.2 44.7 150.9 129.4 271.1 51.7 73.5 104 136.2 123 158.6 42.7-50.3 252.4-303.7 252.4-429.7 0-67.4-26.3-130.8-73.9-178.5C865 90.1 801.6 63.9 734.2 63.9zM606.9 980.2H378.7c-81.4 0-147.5-66.2-147.5-147.5V215.9c0-5.5 4.5-10 10-10s10 4.5 10 10v616.8c0 70.3 57.2 127.5 127.5 127.5h228.2c70.3 0 127.5-57.2 127.5-127.5 0-5.5 4.5-10 10-10s10 4.5 10 10c0 81.3-66.2 147.5-147.5 147.5z" fill="" /><path d="M741.1 881.6h-13.9c-45 0-81.4-36.4-81.4-81.4V651.9h176.7v148.3c0 44.9-36.4 81.4-81.4 81.4z" fill="#75736F" /><path d="M741.1 891.6h-13.9c-50.4 0-91.4-41-91.4-91.4V641.9h196.7v158.3c0 50.4-41 91.4-91.4 91.4z m-85.3-229.7v138.3c0 39.4 32 71.4 71.4 71.4h13.9c39.4 0 71.4-32 71.4-71.4V661.9H655.8zM241.1 436.6c-2.7 0-5.5-1.1-7.4-3.3L134.6 323c-3.7-4.1-3.4-10.4 0.8-14.1 4.1-3.7 10.4-3.4 14.1 0.8L248.6 420c3.7 4.1 3.4 10.4-0.8 14.1-1.9 1.6-4.3 2.5-6.7 2.5zM241.1 624.7c-2.8 0-5.6-1.2-7.6-3.5L94.3 457.7c-3.6-4.2-3.1-10.5 1.1-14.1 4.2-3.6 10.5-3.1 14.1 1.1l139.2 163.5c3.6 4.2 3.1 10.5-1.1 14.1-1.9 1.7-4.2 2.4-6.5 2.4zM241.1 326.3c-2.6 0-5.1-1-7.1-2.9-3.9-3.9-3.9-10.2 0-14.1l67.1-67.1c3.9-3.9 10.2-3.9 14.1 0 3.9 3.9 3.9 10.2 0 14.1l-67.1 67.1c-1.9 1.9-4.4 2.9-7 2.9zM247.7 524c-2.7 0-5.5-1.1-7.4-3.3-3.7-4.1-3.3-10.4 0.8-14.1l97.9-87.8c4.1-3.7 10.4-3.3 14.1 0.8 3.7 4.1 3.3 10.4-0.8 14.1l-97.9 87.8c-2 1.7-4.4 2.5-6.7 2.5z" fill="" /></svg>