<?xml version="1.0" encoding="iso-8859-1"?>
<!-- Uploaded to: SVG Repo, www.svgrepo.com, Generator: SVG Repo Mixer Tools -->
<svg height="800px" width="800px" version="1.1" id="Layer_1" xmlns="http://www.w3.org/2000/svg" xmlns:xlink="http://www.w3.org/1999/xlink" 
	 viewBox="0 0 511.999 511.999" xml:space="preserve">
<path style="fill:#B8C9D9;" d="M289.2,511.719h-66.738c-8.158,0-15.121-5.904-16.457-13.953l-10.439-62.784
	c-8.071-2.732-16.001-6.012-23.723-9.825l-51.814,36.964c-6.637,4.72-15.718,3.992-21.485-1.786L51.39,413.177
	c-5.768-5.763-6.517-14.849-1.782-21.485l36.943-51.787c-3.802-7.702-7.071-15.647-9.776-23.767l-62.818-10.417
	C5.899,304.384,0,297.421,0,289.258v-66.738c0-8.163,5.899-15.126,13.958-16.462l62.818-10.417
	c2.705-8.12,5.974-16.065,9.776-23.767l-36.943-51.787c-4.736-6.637-3.987-15.724,1.782-21.485l47.154-47.159
	c5.768-5.778,14.849-6.507,21.485-1.786l51.814,36.964c7.723-3.813,15.652-7.093,23.723-9.825l10.439-62.784
	c1.335-8.05,8.298-13.954,16.455-13.954H289.2c8.147,0,15.11,5.887,16.457,13.926l10.537,62.818
	c8.114,2.749,16.022,6.023,23.659,9.803l51.781-36.949c6.626-4.72,15.707-3.992,21.475,1.771l47.273,47.159
	c5.778,5.768,6.539,14.876,1.782,21.519l-37.01,51.748c3.758,7.571,7.039,15.522,9.798,23.783l62.763,10.428
	c8.049,1.336,13.947,8.299,13.947,16.457v66.738c0,8.158-5.899,15.121-13.947,16.457l-62.784,10.433
	c-2.759,8.201-6.061,16.201-9.863,23.887c-3.563,7.207-11.796,10.841-19.509,8.652c-22.399-6.355-46.936-5.16-60.612-3.693
	c-1.466,13.719-2.651,38.285,3.693,60.617c2.195,7.739-1.445,15.946-8.657,19.514c-7.658,3.785-15.631,7.082-23.789,9.847
	l-10.537,62.822C304.31,505.832,297.347,511.719,289.2,511.719z M255.831,166.904c-49.065,0-88.985,39.92-88.985,88.985
	s39.92,88.985,88.985,88.985c23.518,0,45.709-9.086,62.492-25.581c12.982-12.982,21.894-29.533,25.111-47.651
	c0.923-5.197,1.382-10.475,1.382-15.753C344.816,206.823,304.896,166.904,255.831,166.904z"/>
<path style="fill:#9EACBA;" d="M497.715,206.063l-62.763-10.428c-2.759-8.261-6.04-16.212-9.798-23.783l37.008-51.748
	c4.757-6.643,3.998-15.75-1.782-21.519l-47.273-47.159c-5.768-5.763-14.849-6.49-21.475-1.771l-51.779,36.949
	c-7.636-3.78-15.545-7.055-23.659-9.803l-10.537-62.818c-1.347-8.039-8.31-13.926-16.457-13.926h-33.586v166.857
	c0.073,0,0.143-0.011,0.217-0.011c49.065,0,88.985,39.92,88.985,88.985c0,18.239-5.631,36.243-16.124,51.169
	c-10.483,14.913-25.56,26.447-42.723,32.604c-9.65,3.462-19.888,5.211-30.138,5.211c-0.073,0-0.143-0.011-0.217-0.011v166.857H289.2
	c8.147,0,15.11-5.887,16.457-13.926l10.537-62.822c8.158-2.764,16.131-6.061,23.789-9.847c7.212-3.568,10.852-11.775,8.657-19.514
	c-6.344-22.333-5.16-46.898-3.693-60.617c13.676-1.466,38.213-2.662,60.612,3.693c7.713,2.189,15.946-1.445,19.509-8.652
	c3.802-7.685,7.104-15.686,9.863-23.887l62.784-10.433c8.049-1.336,13.947-8.299,13.947-16.457v-66.739
	C511.662,214.362,505.763,207.398,497.715,206.063z"/>
<path style="fill:#5FD382;" d="M435.81,491.406c-29.111,0-68.097-5.648-93.906-31.534c-11.504-11.378-20.063-26.585-25.364-45.117
	c-11.155-39.327-3.802-81.88-2.922-86.605c1.289-7.032,7.446-13.169,14.469-14.474c4.704-0.88,47.23-8.256,86.573,2.911
	c18.563,5.296,33.771,13.855,45.242,25.451c42.842,42.71,30.012,122.186,28.253,131.87c-0.934,6.99-6.224,12.741-13.295,14.137
	C473.339,488.343,457.252,491.406,435.81,491.406z"/>
<path style="fill:#36B39A;" d="M495.314,511.942c-4.258,0-8.516-1.618-11.775-4.861l-87.551-87.442
	c-6.528-6.507-6.528-17.076-0.022-23.593c6.507-6.528,17.065-6.539,23.593-0.022l87.529,87.41c6.528,6.501,6.55,17.065,0.055,23.593
	C503.885,510.301,499.593,511.942,495.314,511.942z"/>
</svg>